# xmcd
#
# Track frame offsets: 
#        150
#        18215
#        35607
#        52104
#        68378
#        83921
#        92465
#        112300
#        131687
#        144154
#        161606
#        173557
#
# Disc length: 2533 seconds
#
# Revision: 0
# Processed by: cddbd v1.5.2PL0 Copyright (c) Steve Scherf et al.
# Submitted via: ExactAudioCopy v0.99pb3
#
DISCID=9509e30c
DTITLE=Various Artist - les plus belles voix country
DYEAR=2011
DGENRE=Country
TTITLE0=L'amour C'est Comme Une Chanson (John Starr)
TTITLE1=Chérie (Marie King)
TTITLE2=Je Dis Des Mots D'amour (Albert Babin)
TTITLE3=C'est dur d'être humble (Billy Hunter)
TTITLE4=Jambalaya Medlay (Artistes Variés)
TTITLE5=L'adieu Du Soldat (Serge Lebrun)
TTITLE6=Mon Vieux Copain(Bobby Hachey)
TTITLE7=J'ai Brulé Tes Lettres (Léo Benoit)
TTITLE8=Crazy (Karine)
TTITLE9=Essaye Pas De Comprendre (Albert Babin)
TTITLE10=Valse D'un Viel Amour (Marie King)
TTITLE11=To All The Girls (John Starr)
EXTD=
EXTT0=
EXTT1=
EXTT2=
EXTT3=
EXTT4=
EXTT5=
EXTT6=
EXTT7=
EXTT8=
EXTT9=
EXTT10=
EXTT11=
PLAYORDER=
